<svg xmlns="http://www.w3.org/2000/svg" viewBox="0 0 720 120" width="720" height="120" role="img" aria-label="Contribution trend">
  <defs>
    <linearGradient id="g" x1="0" y1="0" x2="0" y2="1">
      <stop offset="0%" stop-color="#39d353" stop-opacity="0.45"/>
      <stop offset="100%" stop-color="#39d353" stop-opacity="0"/>
    </linearGradient>
  </defs>
  <polygon fill="url(#g)" points="8,112 8.0,112.0 26.5,111.6 45.1,111.2 63.6,110.4 82.1,110.0 100.6,107.2 119.2,102.9 137.7,99.7 156.2,96.9 174.7,94.1 193.3,91.4 211.8,88.6 230.3,82.6 248.8,79.5 267.4,76.7 285.9,73.9 304.4,71.1 322.9,68.3 341.5,65.6 360.0,62.8 378.5,60.0 397.1,57.2 415.6,54.4 434.1,51.7 452.6,48.9 471.2,46.1 489.7,43.3 508.2,40.5 526.7,37.8 545.3,35.0 563.8,32.2 582.3,29.4 600.8,26.7 619.4,23.9 637.9,21.1 656.4,18.3 674.9,15.5 693.5,12.8 712.0,8.0 712,112"/>
  <polyline fill="none" stroke="#39d353" stroke-width="2" stroke-linejoin="round" stroke-linecap="round" points="8.0,112.0 26.5,111.6 45.1,111.2 63.6,110.4 82.1,110.0 100.6,107.2 119.2,102.9 137.7,99.7 156.2,96.9 174.7,94.1 193.3,91.4 211.8,88.6 230.3,82.6 248.8,79.5 267.4,76.7 285.9,73.9 304.4,71.1 322.9,68.3 341.5,65.6 360.0,62.8 378.5,60.0 397.1,57.2 415.6,54.4 434.1,51.7 452.6,48.9 471.2,46.1 489.7,43.3 508.2,40.5 526.7,37.8 545.3,35.0 563.8,32.2 582.3,29.4 600.8,26.7 619.4,23.9 637.9,21.1 656.4,18.3 674.9,15.5 693.5,12.8 712.0,8.0"/>
</svg>
