<svg xmlns="http://www.w3.org/2000/svg" viewBox="0 0 720 120" width="720" height="120" role="img" aria-label="Contribution trend">
  <defs>
    <linearGradient id="g" x1="0" y1="0" x2="0" y2="1">
      <stop offset="0%" stop-color="#39d353" stop-opacity="0.45"/>
      <stop offset="100%" stop-color="#39d353" stop-opacity="0"/>
    </linearGradient>
  </defs>
  <polygon fill="url(#g)" points="8,112 8.0,112.0 58.3,110.8 108.6,109.7 158.9,107.3 209.1,106.2 259.4,98.0 309.7,85.1 360.0,75.8 410.3,67.6 460.6,59.4 510.9,51.2 561.1,43.1 611.4,25.5 661.7,16.2 712.0,8.0 712,112"/>
  <polyline fill="none" stroke="#39d353" stroke-width="2" stroke-linejoin="round" stroke-linecap="round" points="8.0,112.0 58.3,110.8 108.6,109.7 158.9,107.3 209.1,106.2 259.4,98.0 309.7,85.1 360.0,75.8 410.3,67.6 460.6,59.4 510.9,51.2 561.1,43.1 611.4,25.5 661.7,16.2 712.0,8.0"/>
</svg>
