<svg xmlns="http://www.w3.org/2000/svg" viewBox="0 0 720 120" width="720" height="120" role="img" aria-label="Contribution trend">
  <defs>
    <linearGradient id="g" x1="0" y1="0" x2="0" y2="1">
      <stop offset="0%" stop-color="#39d353" stop-opacity="0.45"/>
      <stop offset="100%" stop-color="#39d353" stop-opacity="0"/>
    </linearGradient>
  </defs>
  <polygon fill="url(#g)" points="8,112 8.0,112.0 24.0,111.7 40.0,111.4 56.0,110.8 72.0,110.5 88.0,108.4 104.0,105.1 120.0,102.7 136.0,100.6 152.0,98.5 168.0,96.4 184.0,94.3 200.0,89.8 216.0,87.4 232.0,85.2 248.0,83.1 264.0,81.0 280.0,78.9 296.0,76.8 312.0,74.7 328.0,72.6 344.0,70.5 360.0,68.4 376.0,66.3 392.0,64.2 408.0,62.1 424.0,60.0 440.0,57.9 456.0,55.8 472.0,53.7 488.0,51.6 504.0,49.5 520.0,47.4 536.0,45.3 552.0,43.2 568.0,41.1 584.0,39.0 600.0,36.9 616.0,33.2 632.0,29.3 648.0,18.2 664.0,15.8 680.0,13.7 696.0,11.6 712.0,8.0 712,112"/>
  <polyline fill="none" stroke="#39d353" stroke-width="2" stroke-linejoin="round" stroke-linecap="round" points="8.0,112.0 24.0,111.7 40.0,111.4 56.0,110.8 72.0,110.5 88.0,108.4 104.0,105.1 120.0,102.7 136.0,100.6 152.0,98.5 168.0,96.4 184.0,94.3 200.0,89.8 216.0,87.4 232.0,85.2 248.0,83.1 264.0,81.0 280.0,78.9 296.0,76.8 312.0,74.7 328.0,72.6 344.0,70.5 360.0,68.4 376.0,66.3 392.0,64.2 408.0,62.1 424.0,60.0 440.0,57.9 456.0,55.8 472.0,53.7 488.0,51.6 504.0,49.5 520.0,47.4 536.0,45.3 552.0,43.2 568.0,41.1 584.0,39.0 600.0,36.9 616.0,33.2 632.0,29.3 648.0,18.2 664.0,15.8 680.0,13.7 696.0,11.6 712.0,8.0"/>
</svg>
